<?xml version="1.0" standalone="no"?>
<!DOCTYPE svg PUBLIC "-//W3C//DTD SVG 20010904//EN"
 "http://www.w3.org/TR/2001/REC-SVG-20010904/DTD/svg10.dtd">
<svg version="1.0" xmlns="http://www.w3.org/2000/svg"
 width="564.000000pt" height="379.000000pt" viewBox="0 0 564.000000 379.000000"
 preserveAspectRatio="xMidYMid meet">

<g transform="translate(0.000000,379.000000) scale(0.100000,-0.100000)"
fill="#000000" stroke="none">
<path d="M125 3060 c20 -10 573 -117 749 -145 189 -30 342 -47 590 -65 217
-16 270 -15 381 8 55 12 124 24 153 27 28 4 52 10 52 13 0 4 -69 24 -153 45
l-152 37 -260 -6 c-294 -7 -736 15 -1020 51 -16 2 -95 11 -175 20 -80 9 -154
18 -165 21 l-20 4 20 -10z"/>
<path d="M5519 3066 c-2 -2 -71 -11 -154 -21 -82 -9 -163 -18 -180 -20 -286
-36 -725 -58 -1020 -51 l-260 6 -152 -37 c-84 -21 -153 -41 -153 -45 0 -3 24
-9 53 -13 28 -3 97 -15 152 -27 111 -23 164 -24 381 -8 370 27 492 44 1000
140 280 53 385 77 348 79 -6 1 -13 -1 -15 -3z"/>
<path d="M2747 2989 c-32 -37 -33 -42 -7 -77 18 -24 20 -44 21 -207 1 -179 1
-180 -24 -200 -13 -11 -50 -41 -82 -67 -66 -56 -59 -57 -172 37 -87 73 -188
188 -278 318 -33 47 -63 86 -66 87 -4 0 -5 -33 -2 -72 8 -142 12 -157 52 -196
49 -47 322 -232 343 -232 5 0 22 -10 38 -22 33 -24 25 -28 127 60 58 50 62 52
72 33 6 -11 11 -22 11 -25 0 -4 -25 -33 -56 -67 -51 -55 -55 -63 -52 -102 2
-34 8 -44 30 -55 34 -16 46 -38 49 -88 3 -55 -10 -104 -37 -139 -23 -30 -23
-33 -14 -155 15 -202 41 -526 51 -650 20 -249 49 -633 59 -783 5 -87 14 -166
20 -175 5 -9 10 -15 10 -12 0 3 2 34 5 70 2 36 7 92 9 125 7 76 71 1071 87
1345 l12 205 -31 67 c-18 36 -32 75 -32 85 0 39 22 82 56 108 29 23 34 32 34
69 0 46 -14 64 -94 122 -26 19 -27 22 -15 42 8 12 17 22 21 22 3 0 30 -19 58
-42 93 -76 88 -75 155 -43 33 15 71 35 85 45 14 9 72 48 129 86 141 94 178
131 185 186 9 75 14 188 7 188 -3 -1 -33 -40 -66 -87 -117 -169 -244 -304
-358 -381 l-38 -25 -24 24 c-12 13 -48 44 -79 69 l-56 45 0 179 c0 163 2 182
21 212 22 36 18 54 -20 88 -19 17 -21 17 -21 2 0 -9 5 -25 12 -35 9 -15 7 -24
-10 -46 -21 -26 -22 -39 -22 -196 l0 -169 -25 0 -25 0 0 169 c0 156 -2 170
-21 195 -19 24 -20 30 -9 57 17 41 9 44 -23 8z m107 -475 c9 -8 16 -22 16 -29
0 -16 -27 -45 -42 -45 -15 0 -48 30 -48 43 0 15 31 47 46 47 7 0 20 -7 28 -16z
m39 -172 c62 -44 63 -75 8 -132 -55 -57 -61 -109 -26 -209 29 -81 31 -69 -27
-134 -16 -19 -18 -18 -57 14 -22 19 -41 37 -41 42 0 4 11 40 26 80 19 55 24
82 19 117 -7 48 -47 110 -71 110 -9 0 -14 10 -14 27 0 35 94 135 119 125 9 -3
37 -21 64 -40z m-106 -512 c43 -38 55 -38 88 1 14 17 29 29 32 25 8 -8 5 -122
-8 -311 -12 -175 -47 -731 -56 -888 -6 -122 -11 -140 -18 -66 -2 24 -7 71 -9
104 -3 33 -13 168 -21 300 -9 132 -22 323 -30 425 -21 270 -28 440 -20 440 4
0 23 -13 42 -30z"/>
<path d="M2808 3008 c-7 -19 2 -38 19 -38 9 0 13 8 11 22 -3 25 -23 35 -30 16z"/>
<path d="M1710 2669 c-147 -33 -379 -79 -535 -104 -227 -36 -226 -36 -505 -59
l-145 -12 130 -8 c213 -14 731 2 950 29 17 2 66 7 110 11 44 4 85 8 90 9 22 3
235 116 235 124 0 4 -35 11 -77 14 -43 4 -98 9 -123 11 -26 3 -80 -3 -130 -15z"/>
<path d="M3755 2680 c-27 -5 -71 -9 -97 -9 -27 -1 -48 -5 -48 -11 0 -9 210
-121 235 -125 6 -1 46 -5 90 -9 44 -4 94 -9 110 -11 219 -27 737 -43 950 -29
l130 8 -145 12 c-279 23 -278 23 -505 59 -148 24 -363 66 -540 104 -97 22
-105 22 -180 11z"/>
<path d="M1830 2434 c-25 -8 -81 -25 -126 -38 -56 -17 -114 -45 -192 -95 -62
-39 -126 -78 -143 -87 -17 -8 -29 -17 -27 -20 3 -2 71 13 153 32 l148 37 121
84 c67 47 125 89 131 94 13 13 -12 10 -65 -7z"/>
<path d="M3756 2441 c5 -5 63 -47 130 -94 l121 -84 148 -37 c146 -35 179 -39
133 -16 -12 7 -80 48 -149 91 -70 44 -131 79 -137 79 -6 0 -61 16 -122 35
-116 36 -141 42 -124 26z"/>
<path d="M2008 2341 l-117 -46 -113 -120 c-240 -255 -490 -482 -732 -665 -59
-45 -71 -59 -33 -39 120 63 540 358 722 509 44 36 119 94 167 129 71 51 99 79
150 153 35 50 69 99 77 109 18 25 14 24 -121 -30z"/>
<path d="M3520 2373 c8 -11 43 -61 78 -111 51 -74 79 -102 150 -153 48 -35
123 -93 167 -129 182 -151 602 -446 723 -509 37 -20 25 -6 -34 39 -241 181
-485 404 -734 666 l-115 122 -110 42 c-60 23 -117 45 -125 48 -13 5 -13 4 0
-15z"/>
<path d="M2134 2152 c-10 -10 -44 -37 -74 -61 -66 -51 -84 -74 -135 -165 l-38
-69 84 58 c80 55 87 64 137 153 28 53 50 97 49 99 -2 1 -12 -5 -23 -15z"/>
<path d="M3491 2165 c2 -6 26 -51 53 -100 46 -85 55 -95 134 -149 l85 -59 -38
69 c-51 91 -70 114 -135 165 -30 23 -57 45 -60 48 -13 16 -43 35 -39 26z"/>
<path d="M2368 2107 c-57 -42 -59 -45 -198 -322 -77 -154 -132 -270 -122 -259
9 12 34 44 54 70 20 27 86 112 145 189 60 77 120 156 135 175 18 23 31 61 41
113 8 42 12 77 8 77 -3 0 -32 -20 -63 -43z"/>
<path d="M3227 2073 c10 -52 23 -90 41 -113 15 -19 75 -98 135 -175 59 -77
125 -162 145 -189 20 -26 45 -58 54 -70 10 -11 -45 105 -122 259 l-141 280
-58 43 c-32 23 -61 42 -64 42 -2 0 2 -35 10 -77z"/>
<path d="M2557 1943 c-4 -10 -20 -43 -37 -73 -25 -46 -30 -66 -30 -120 l0 -65
39 60 c35 54 40 68 44 138 4 72 -3 100 -16 60z"/>
<path d="M3077 1883 c4 -70 9 -84 44 -138 l39 -60 0 65 c0 54 -5 74 -30 120
-17 30 -33 63 -37 73 -13 40 -20 12 -16 -60z"/>
<path d="M954 1446 c-10 -8 -16 -17 -13 -20 3 -3 14 3 24 14 21 23 17 26 -11
6z"/>
<path d="M4684 1441 c21 -23 26 -26 26 -11 0 5 -10 15 -22 21 -23 12 -23 12
-4 -10z"/>
</g>
</svg>
